<svg width="144" height="61" viewBox="0 0 144 61" fill="none" xmlns="http://www.w3.org/2000/svg">
<path d="M1.76136 58V43.4545H3.52273V49.9318H11.2784V43.4545H13.0398V58H11.2784V51.4943H3.52273V58H1.76136ZM20.9126 58.2273C19.8615 58.2273 18.9548 57.9953 18.1925 57.5312C17.4349 57.0625 16.8501 56.4091 16.4382 55.571C16.031 54.7282 15.8274 53.7481 15.8274 52.6307C15.8274 51.5133 16.031 50.5284 16.4382 49.6761C16.8501 48.8191 17.4231 48.1515 18.157 47.6733C18.8956 47.1903 19.7573 46.9489 20.7422 46.9489C21.3104 46.9489 21.8714 47.0436 22.4254 47.233C22.9794 47.4223 23.4837 47.7301 23.9382 48.1562C24.3928 48.5777 24.755 49.1364 25.0249 49.8324C25.2947 50.5284 25.4297 51.3854 25.4297 52.4034V53.1136H17.0206V51.6648H23.7251C23.7251 51.0492 23.602 50.5 23.3558 50.017C23.1143 49.5341 22.7687 49.1529 22.3189 48.8736C21.8738 48.5942 21.3482 48.4545 20.7422 48.4545C20.0746 48.4545 19.4969 48.6203 19.0092 48.9517C18.5263 49.2784 18.1546 49.7045 17.8942 50.2301C17.6338 50.7557 17.5036 51.3191 17.5036 51.9205V52.8864C17.5036 53.7102 17.6456 54.4086 17.9297 54.9815C18.2185 55.5497 18.6186 55.983 19.13 56.2812C19.6413 56.5748 20.2356 56.7216 20.9126 56.7216C21.353 56.7216 21.7507 56.66 22.1058 56.5369C22.4657 56.4091 22.7758 56.2197 23.0362 55.9688C23.2966 55.7131 23.4979 55.3958 23.6399 55.017L25.2592 55.4716C25.0888 56.0208 24.8023 56.5038 24.3999 56.9205C23.9974 57.3324 23.5002 57.6544 22.9084 57.8864C22.3165 58.1136 21.6513 58.2273 20.9126 58.2273ZM31.1896 58.2557C30.4983 58.2557 29.871 58.1255 29.3075 57.8651C28.7441 57.5999 28.2966 57.2188 27.9652 56.7216C27.6338 56.2197 27.468 55.6136 27.468 54.9034C27.468 54.2784 27.5911 53.7718 27.8374 53.3835C28.0836 52.9905 28.4126 52.6828 28.8246 52.4602C29.2365 52.2377 29.6911 52.072 30.1882 51.9631C30.6901 51.8494 31.1944 51.7595 31.701 51.6932C32.3639 51.608 32.9013 51.544 33.3132 51.5014C33.7299 51.4541 34.0329 51.3759 34.2223 51.267C34.4164 51.1581 34.5135 50.9687 34.5135 50.6989V50.642C34.5135 49.9413 34.3217 49.3968 33.9382 49.0085C33.5594 48.6203 32.9841 48.4261 32.2124 48.4261C31.4122 48.4261 30.7848 48.6013 30.3303 48.9517C29.8757 49.3021 29.5561 49.6761 29.3714 50.0739L27.7805 49.5057C28.0646 48.8428 28.4434 48.3267 28.9169 47.9574C29.3951 47.5833 29.916 47.3229 30.4794 47.1761C31.0476 47.0246 31.6063 46.9489 32.1555 46.9489C32.5059 46.9489 32.9084 46.9915 33.3629 47.0767C33.8222 47.1572 34.2649 47.3253 34.6911 47.581C35.1219 47.8366 35.4794 48.2225 35.7635 48.7386C36.0476 49.2547 36.1896 49.946 36.1896 50.8125V58H34.5135V56.5227H34.4283C34.3146 56.7595 34.1252 57.0128 33.8601 57.2827C33.5949 57.5526 33.2422 57.7822 32.8018 57.9716C32.3615 58.161 31.8241 58.2557 31.1896 58.2557ZM31.4453 56.75C32.1082 56.75 32.6669 56.6198 33.1214 56.3594C33.5807 56.099 33.9264 55.7628 34.1584 55.3509C34.3951 54.9389 34.5135 54.5057 34.5135 54.0511V52.517C34.4425 52.6023 34.2862 52.6804 34.0447 52.7514C33.808 52.8177 33.5334 52.8769 33.2209 52.929C32.9131 52.9763 32.6125 53.0189 32.3189 53.0568C32.0301 53.09 31.7957 53.1184 31.6158 53.142C31.1802 53.1989 30.773 53.2912 30.3942 53.419C30.0201 53.5421 29.7171 53.7292 29.4851 53.9801C29.2578 54.2263 29.1442 54.5625 29.1442 54.9886C29.1442 55.571 29.3596 56.0114 29.7905 56.3097C30.2261 56.6032 30.7777 56.75 31.4453 56.75ZM40.9251 43.4545V58H39.2489V43.4545H40.9251ZM48.7393 47.0909V48.5114H43.0859V47.0909H48.7393ZM44.7337 44.4773H46.4098V54.875C46.4098 55.3485 46.4785 55.7036 46.6158 55.9403C46.7578 56.1723 46.9377 56.3286 47.1555 56.4091C47.3781 56.4848 47.6125 56.5227 47.8587 56.5227C48.0433 56.5227 48.1948 56.5133 48.3132 56.4943C48.4316 56.4706 48.5263 56.4517 48.5973 56.4375L48.9382 57.9432C48.8246 57.9858 48.666 58.0284 48.4624 58.071C48.2588 58.1184 48.0007 58.142 47.6882 58.142C47.2147 58.142 46.7507 58.0402 46.2962 57.8366C45.8464 57.633 45.4723 57.3229 45.174 56.9062C44.8804 56.4896 44.7337 55.964 44.7337 55.3295V44.4773ZM53.1712 51.4375V58H51.495V43.4545H53.1712V48.7955H53.3132C53.5689 48.232 53.9524 47.7846 54.4638 47.4531C54.9799 47.117 55.6664 46.9489 56.5234 46.9489C57.2668 46.9489 57.9179 47.098 58.4766 47.3963C59.0353 47.6899 59.4685 48.142 59.7763 48.7528C60.0888 49.3589 60.245 50.1307 60.245 51.0682V58H58.5689V51.1818C58.5689 50.3153 58.344 49.6454 57.8942 49.1719C57.4491 48.6937 56.8312 48.4545 56.0405 48.4545C55.4912 48.4545 54.9988 48.5705 54.5632 48.8026C54.1323 49.0346 53.7914 49.3731 53.5405 49.8182C53.2943 50.2633 53.1712 50.803 53.1712 51.4375Z" fill="#434040"/>
<path d="M3.17045 35V8.81818H18.9716V11.6307H6.34091V20.4773H18.1534V23.2898H6.34091V32.1875H19.1761V35H3.17045ZM45.7543 17H42.5838C42.3963 16.0881 42.0682 15.2869 41.5994 14.5966C41.1392 13.9062 40.5767 13.3267 39.9119 12.858C39.2557 12.3807 38.527 12.0227 37.7259 11.7841C36.9247 11.5455 36.0895 11.4261 35.2202 11.4261C33.6349 11.4261 32.1989 11.8267 30.9119 12.6278C29.6335 13.429 28.6151 14.6094 27.8565 16.169C27.1065 17.7287 26.7315 19.642 26.7315 21.9091C26.7315 24.1761 27.1065 26.0895 27.8565 27.6491C28.6151 29.2088 29.6335 30.3892 30.9119 31.1903C32.1989 31.9915 33.6349 32.392 35.2202 32.392C36.0895 32.392 36.9247 32.2727 37.7259 32.0341C38.527 31.7955 39.2557 31.4418 39.9119 30.973C40.5767 30.4957 41.1392 29.9119 41.5994 29.2216C42.0682 28.5227 42.3963 27.7216 42.5838 26.8182H45.7543C45.5156 28.1562 45.081 29.3537 44.4503 30.4105C43.8196 31.4673 43.0355 32.3665 42.098 33.108C41.1605 33.8409 40.108 34.3991 38.9403 34.7827C37.7813 35.1662 36.5412 35.358 35.2202 35.358C32.9872 35.358 31.0014 34.8125 29.2628 33.7216C27.5241 32.6307 26.1563 31.0795 25.1591 29.0682C24.1619 27.0568 23.6634 24.6705 23.6634 21.9091C23.6634 19.1477 24.1619 16.7614 25.1591 14.75C26.1563 12.7386 27.5241 11.1875 29.2628 10.0966C31.0014 9.00568 32.9872 8.46023 35.2202 8.46023C36.5412 8.46023 37.7813 8.65199 38.9403 9.03551C40.108 9.41903 41.1605 9.98153 42.098 10.723C43.0355 11.456 43.8196 12.3509 44.4503 13.4077C45.081 14.456 45.5156 15.6534 45.7543 17ZM50.8775 35V8.81818H54.0479V20.4773H68.0082V8.81818H71.1786V35H68.0082V23.2898H54.0479V35H50.8775ZM99.6168 21.9091C99.6168 24.6705 99.1183 27.0568 98.1211 29.0682C97.1239 31.0795 95.756 32.6307 94.0174 33.7216C92.2788 34.8125 90.293 35.358 88.06 35.358C85.8271 35.358 83.8413 34.8125 82.1026 33.7216C80.364 32.6307 78.9961 31.0795 77.9989 29.0682C77.0018 27.0568 76.5032 24.6705 76.5032 21.9091C76.5032 19.1477 77.0018 16.7614 77.9989 14.75C78.9961 12.7386 80.364 11.1875 82.1026 10.0966C83.8413 9.00568 85.8271 8.46023 88.06 8.46023C90.293 8.46023 92.2788 9.00568 94.0174 10.0966C95.756 11.1875 97.1239 12.7386 98.1211 14.75C99.1183 16.7614 99.6168 19.1477 99.6168 21.9091ZM96.5487 21.9091C96.5487 19.642 96.1694 17.7287 95.4109 16.169C94.6609 14.6094 93.6424 13.429 92.3555 12.6278C91.0771 11.8267 89.6452 11.4261 88.06 11.4261C86.4748 11.4261 85.0387 11.8267 83.7518 12.6278C82.4734 13.429 81.4549 14.6094 80.6964 16.169C79.9464 17.7287 79.5714 19.642 79.5714 21.9091C79.5714 24.1761 79.9464 26.0895 80.6964 27.6491C81.4549 29.2088 82.4734 30.3892 83.7518 31.1903C85.0387 31.9915 86.4748 32.392 88.06 32.392C89.6452 32.392 91.0771 31.9915 92.3555 31.1903C93.6424 30.3892 94.6609 29.2088 95.4109 27.6491C96.1694 26.0895 96.5487 24.1761 96.5487 21.9091Z" fill="#A3D5D3"/>
</svg>
